# xmcd
#
# Track frame offsets: 
#        150
#        21717
#        38217
#        57242
#        76760
#        92622
#        117787
#        139445
#        159467
#        184127
#        200395
#        225812
#
# Disc length: 3299 seconds
#
# Revision: 0
# Processed by: cddbd v1.5.1PL2 Copyright (c) Steve Scherf et al.
# Submitted via: ExactAudioCopy v0.95b3
#
DISCID=960ce10c
DTITLE=Al Basile - Down On Providence Plantation
DYEAR=1998
DGENRE=Blues
TTITLE0=When I Reach My Limit
TTITLE1=What Your Kisses Say
TTITLE2=Don't Start Something
TTITLE3=Bite Your Tongue
TTITLE4=It Doesn't Hurt Me At All
TTITLE5=Things Aren't Going So Well
TTITLE6=An Understanding Heart
TTITLE7=Prove It To You
TTITLE8=You Brought My House Down
TTITLE9=Pretty Little Lolita
TTITLE10=I Really Miss You
TTITLE11=Lonesome Traveller
EXTD=
EXTT0=
EXTT1=
EXTT2=
EXTT3=
EXTT4=
EXTT5=
EXTT6=
EXTT7=
EXTT8=
EXTT9=
EXTT10=
EXTT11=
PLAYORDER=
